<svg width="19" height="16" viewBox="0 0 19 16" fill="none" xmlns="http://www.w3.org/2000/svg">
<path d="M10.8571 6L9.90036 6.94L11.6511 8.66667H5.42857V10H11.6511L9.90036 11.7267L10.8571 12.6667L14.25 9.33333L10.8571 6Z" fill="#333436"/>
<path d="M6.22386 1.33333L8.93814 4H17.6429V14.6667H1.35714V1.33333H6.22386ZM6.22386 0H1.35714C0.997206 0 0.652012 0.140476 0.397498 0.390524C0.142984 0.640573 0 0.979711 0 1.33333V14.6667C0 15.0203 0.142984 15.3594 0.397498 15.6095C0.652012 15.8595 0.997206 16 1.35714 16H17.6429C18.0028 16 18.348 15.8595 18.6025 15.6095C18.857 15.3594 19 15.0203 19 14.6667V4C19 3.64638 18.857 3.30724 18.6025 3.05719C18.348 2.80714 18.0028 2.66667 17.6429 2.66667H9.5L7.18336 0.390667C6.9289 0.140601 6.58376 7.55165e-05 6.22386 0Z" fill="#333436"/>
</svg>
