<svg width="14" height="17" viewBox="0 0 14 17" fill="none" xmlns="http://www.w3.org/2000/svg">
<path d="M13.3333 13.4455H12.8333V6.87727C12.8333 4.15148 10.6604 1.89898 7.83333 1.5242V0.772727C7.83333 0.345795 7.46042 0 7 0C6.53958 0 6.16667 0.345795 6.16667 0.772727V1.5242C3.33958 1.89898 1.16667 4.15148 1.16667 6.87727V13.4455H0.666667C0.297917 13.4455 0 13.7217 0 14.0636V14.6818C0 14.7668 0.075 14.8364 0.166667 14.8364H4.66667C4.66667 16.0302 5.7125 17 7 17C8.2875 17 9.33333 16.0302 9.33333 14.8364H13.8333C13.925 14.8364 14 14.7668 14 14.6818V14.0636C14 13.7217 13.7021 13.4455 13.3333 13.4455ZM7 15.7636C6.44792 15.7636 6 15.3483 6 14.8364H8C8 15.3483 7.55208 15.7636 7 15.7636ZM2.66667 13.4455V6.87727C2.66667 5.80318 3.11667 4.79477 3.93542 4.03557C4.75417 3.27636 5.84167 2.85909 7 2.85909C8.15833 2.85909 9.24583 3.27636 10.0646 4.03557C10.8833 4.79477 11.3333 5.80318 11.3333 6.87727V13.4455H2.66667Z" fill="#848587"/>
</svg>
